<mxfile host="app.diagrams.net" modified="2020-12-22T09:03:34.911Z" agent="5.0 (Macintosh; Intel Mac OS X 10_14_3) AppleWebKit/537.36 (KHTML, like Gecko) Chrome/87.0.4280.88 Safari/537.36" etag="tT4trRyFGbs1_HzrBR6K" version="14.1.1" type="github">
  <diagram id="rfBHo0WlHgLrZ6Vjn7Su" name="Page-1">
    <mxGraphModel dx="1186" dy="707" grid="1" gridSize="10" guides="1" tooltips="1" connect="1" arrows="1" fold="1" page="1" pageScale="1" pageWidth="827" pageHeight="1169" math="0" shadow="0">
      <root>
        <mxCell id="0" />
        <mxCell id="1" parent="0" />
        <mxCell id="JjA0xLamq4_Y50HzqTPM-2" value="产品" style="shape=umlLifeline;perimeter=lifelinePerimeter;whiteSpace=wrap;html=1;container=1;collapsible=0;recursiveResize=0;outlineConnect=0;" vertex="1" parent="1">
          <mxGeometry x="130" y="170" width="100" height="370" as="geometry" />
        </mxCell>
        <mxCell id="JjA0xLamq4_Y50HzqTPM-8" value="" style="html=1;points=[];perimeter=orthogonalPerimeter;" vertex="1" parent="JjA0xLamq4_Y50HzqTPM-2">
          <mxGeometry x="45" y="90" width="10" height="80" as="geometry" />
        </mxCell>
        <mxCell id="JjA0xLamq4_Y50HzqTPM-13" value="" style="html=1;points=[];perimeter=orthogonalPerimeter;" vertex="1" parent="JjA0xLamq4_Y50HzqTPM-2">
          <mxGeometry x="45" y="190" width="10" height="180" as="geometry" />
        </mxCell>
        <mxCell id="JjA0xLamq4_Y50HzqTPM-3" value="组长" style="shape=umlLifeline;perimeter=lifelinePerimeter;whiteSpace=wrap;html=1;container=1;collapsible=0;recursiveResize=0;outlineConnect=0;" vertex="1" parent="1">
          <mxGeometry x="350" y="170" width="100" height="360" as="geometry" />
        </mxCell>
        <mxCell id="JjA0xLamq4_Y50HzqTPM-14" value="" style="html=1;points=[];perimeter=orthogonalPerimeter;" vertex="1" parent="JjA0xLamq4_Y50HzqTPM-3">
          <mxGeometry x="45" y="290" width="10" height="80" as="geometry" />
        </mxCell>
        <mxCell id="JjA0xLamq4_Y50HzqTPM-22" value="需求任务分配、概要分析和评审" style="html=1;verticalAlign=bottom;startArrow=oval;startFill=1;endArrow=block;startSize=8;" edge="1" parent="JjA0xLamq4_Y50HzqTPM-3" target="JjA0xLamq4_Y50HzqTPM-10">
          <mxGeometry width="60" relative="1" as="geometry">
            <mxPoint x="50" y="290" as="sourcePoint" />
            <mxPoint x="110" y="290" as="targetPoint" />
          </mxGeometry>
        </mxCell>
        <mxCell id="JjA0xLamq4_Y50HzqTPM-4" value="" style="html=1;points=[];perimeter=orthogonalPerimeter;" vertex="1" parent="1">
          <mxGeometry x="395" y="260" width="10" height="80" as="geometry" />
        </mxCell>
        <mxCell id="JjA0xLamq4_Y50HzqTPM-9" value="初步评估需求内容和周期" style="html=1;verticalAlign=bottom;endArrow=open;dashed=1;endSize=8;exitX=0.2;exitY=0.988;exitDx=0;exitDy=0;exitPerimeter=0;" edge="1" parent="1" source="JjA0xLamq4_Y50HzqTPM-4">
          <mxGeometry relative="1" as="geometry">
            <mxPoint x="350" y="340" as="sourcePoint" />
            <mxPoint x="220" y="339" as="targetPoint" />
          </mxGeometry>
        </mxCell>
        <mxCell id="JjA0xLamq4_Y50HzqTPM-10" value="研测" style="shape=umlLifeline;perimeter=lifelinePerimeter;whiteSpace=wrap;html=1;container=1;collapsible=0;recursiveResize=0;outlineConnect=0;" vertex="1" parent="1">
          <mxGeometry x="570" y="170" width="100" height="300" as="geometry" />
        </mxCell>
        <mxCell id="JjA0xLamq4_Y50HzqTPM-11" value="" style="html=1;points=[];perimeter=orthogonalPerimeter;" vertex="1" parent="JjA0xLamq4_Y50HzqTPM-10">
          <mxGeometry x="45" y="190" width="10" height="80" as="geometry" />
        </mxCell>
        <mxCell id="JjA0xLamq4_Y50HzqTPM-12" value="需求评审会议" style="html=1;verticalAlign=bottom;startArrow=oval;endArrow=block;startSize=8;" edge="1" parent="1" target="JjA0xLamq4_Y50HzqTPM-11" source="JjA0xLamq4_Y50HzqTPM-2">
          <mxGeometry relative="1" as="geometry">
            <mxPoint x="555" y="360" as="sourcePoint" />
          </mxGeometry>
        </mxCell>
        <mxCell id="JjA0xLamq4_Y50HzqTPM-5" value="需求初步评审" style="html=1;verticalAlign=bottom;startArrow=oval;endArrow=block;startSize=8;exitX=0.6;exitY=-0.012;exitDx=0;exitDy=0;exitPerimeter=0;" edge="1" target="JjA0xLamq4_Y50HzqTPM-4" parent="1" source="JjA0xLamq4_Y50HzqTPM-8">
          <mxGeometry relative="1" as="geometry">
            <mxPoint x="190" y="260" as="sourcePoint" />
          </mxGeometry>
        </mxCell>
        <mxCell id="JjA0xLamq4_Y50HzqTPM-20" value="" style="html=1;points=[];perimeter=orthogonalPerimeter;" vertex="1" parent="1">
          <mxGeometry x="615" y="460" width="10" height="60" as="geometry" />
        </mxCell>
        <mxCell id="JjA0xLamq4_Y50HzqTPM-23" value="需求任务划分和时长预估" style="html=1;verticalAlign=bottom;endArrow=open;dashed=1;endSize=8;entryX=1;entryY=0.6;entryDx=0;entryDy=0;entryPerimeter=0;" edge="1" parent="1" target="JjA0xLamq4_Y50HzqTPM-14">
          <mxGeometry x="0.074" y="-9" relative="1" as="geometry">
            <mxPoint x="610" y="510" as="sourcePoint" />
            <mxPoint x="530" y="540" as="targetPoint" />
            <Array as="points" />
            <mxPoint as="offset" />
          </mxGeometry>
        </mxCell>
        <mxCell id="JjA0xLamq4_Y50HzqTPM-24" value="需求任务排期表" style="html=1;verticalAlign=bottom;endArrow=open;dashed=1;endSize=8;" edge="1" parent="1">
          <mxGeometry relative="1" as="geometry">
            <mxPoint x="390" y="540" as="sourcePoint" />
            <mxPoint x="180" y="540" as="targetPoint" />
          </mxGeometry>
        </mxCell>
        <mxCell id="JjA0xLamq4_Y50HzqTPM-26" value="后台" style="shape=umlLifeline;perimeter=lifelinePerimeter;whiteSpace=wrap;html=1;container=1;collapsible=0;recursiveResize=0;outlineConnect=0;" vertex="1" parent="1">
          <mxGeometry x="130" y="630" width="100" height="720" as="geometry" />
        </mxCell>
        <mxCell id="JjA0xLamq4_Y50HzqTPM-27" value="" style="html=1;points=[];perimeter=orthogonalPerimeter;" vertex="1" parent="JjA0xLamq4_Y50HzqTPM-26">
          <mxGeometry x="45" y="70" width="10" height="80" as="geometry" />
        </mxCell>
        <mxCell id="JjA0xLamq4_Y50HzqTPM-32" value="接口文档定义" style="html=1;verticalAlign=bottom;startArrow=oval;startFill=1;endArrow=block;startSize=8;" edge="1" parent="JjA0xLamq4_Y50HzqTPM-26" target="JjA0xLamq4_Y50HzqTPM-28">
          <mxGeometry width="60" relative="1" as="geometry">
            <mxPoint x="60" y="70" as="sourcePoint" />
            <mxPoint x="120" y="70" as="targetPoint" />
          </mxGeometry>
        </mxCell>
        <mxCell id="JjA0xLamq4_Y50HzqTPM-35" value="" style="html=1;points=[];perimeter=orthogonalPerimeter;" vertex="1" parent="JjA0xLamq4_Y50HzqTPM-26">
          <mxGeometry x="45" y="220" width="10" height="40" as="geometry" />
        </mxCell>
        <mxCell id="JjA0xLamq4_Y50HzqTPM-36" value="后台实现并部署dev环境" style="edgeStyle=orthogonalEdgeStyle;html=1;align=left;spacingLeft=2;endArrow=block;rounded=0;entryX=1;entryY=0;" edge="1" target="JjA0xLamq4_Y50HzqTPM-35" parent="JjA0xLamq4_Y50HzqTPM-26">
          <mxGeometry relative="1" as="geometry">
            <mxPoint x="65" y="190" as="sourcePoint" />
            <Array as="points">
              <mxPoint x="70" y="190" />
              <mxPoint x="70" y="220" />
            </Array>
          </mxGeometry>
        </mxCell>
        <mxCell id="JjA0xLamq4_Y50HzqTPM-42" value="" style="html=1;points=[];perimeter=orthogonalPerimeter;" vertex="1" parent="JjA0xLamq4_Y50HzqTPM-26">
          <mxGeometry x="45" y="290" width="10" height="70" as="geometry" />
        </mxCell>
        <mxCell id="JjA0xLamq4_Y50HzqTPM-43" value="连调调整" style="html=1;verticalAlign=bottom;endArrow=open;dashed=1;endSize=8;" edge="1" parent="JjA0xLamq4_Y50HzqTPM-26">
          <mxGeometry x="0.0499" relative="1" as="geometry">
            <mxPoint x="50" y="360" as="sourcePoint" />
            <mxPoint x="230" y="360" as="targetPoint" />
            <mxPoint as="offset" />
          </mxGeometry>
        </mxCell>
        <mxCell id="JjA0xLamq4_Y50HzqTPM-61" value="" style="html=1;points=[];perimeter=orthogonalPerimeter;" vertex="1" parent="JjA0xLamq4_Y50HzqTPM-26">
          <mxGeometry x="45" y="410" width="10" height="40" as="geometry" />
        </mxCell>
        <mxCell id="JjA0xLamq4_Y50HzqTPM-62" value="后端部署&lt;br&gt;测试环境并自测" style="edgeStyle=orthogonalEdgeStyle;html=1;align=left;spacingLeft=2;endArrow=block;rounded=0;entryX=1;entryY=0;" edge="1" target="JjA0xLamq4_Y50HzqTPM-61" parent="JjA0xLamq4_Y50HzqTPM-26">
          <mxGeometry relative="1" as="geometry">
            <mxPoint x="50" y="390" as="sourcePoint" />
            <Array as="points">
              <mxPoint x="75" y="390" />
            </Array>
          </mxGeometry>
        </mxCell>
        <mxCell id="JjA0xLamq4_Y50HzqTPM-74" value="" style="html=1;points=[];perimeter=orthogonalPerimeter;" vertex="1" parent="JjA0xLamq4_Y50HzqTPM-26">
          <mxGeometry x="45" y="590" width="10" height="80" as="geometry" />
        </mxCell>
        <mxCell id="JjA0xLamq4_Y50HzqTPM-76" value="bug修复" style="html=1;verticalAlign=bottom;endArrow=open;dashed=1;endSize=8;" edge="1" parent="JjA0xLamq4_Y50HzqTPM-26">
          <mxGeometry relative="1" as="geometry">
            <mxPoint x="60" y="660" as="sourcePoint" />
            <mxPoint x="200" y="660" as="targetPoint" />
          </mxGeometry>
        </mxCell>
        <mxCell id="JjA0xLamq4_Y50HzqTPM-28" value="前端/app" style="shape=umlLifeline;perimeter=lifelinePerimeter;whiteSpace=wrap;html=1;container=1;collapsible=0;recursiveResize=0;outlineConnect=0;" vertex="1" parent="1">
          <mxGeometry x="350" y="630" width="100" height="720" as="geometry" />
        </mxCell>
        <mxCell id="JjA0xLamq4_Y50HzqTPM-29" value="" style="html=1;points=[];perimeter=orthogonalPerimeter;" vertex="1" parent="JjA0xLamq4_Y50HzqTPM-28">
          <mxGeometry x="45" y="70" width="10" height="80" as="geometry" />
        </mxCell>
        <mxCell id="JjA0xLamq4_Y50HzqTPM-38" value="" style="html=1;points=[];perimeter=orthogonalPerimeter;" vertex="1" parent="JjA0xLamq4_Y50HzqTPM-28">
          <mxGeometry x="45" y="220" width="10" height="40" as="geometry" />
        </mxCell>
        <mxCell id="JjA0xLamq4_Y50HzqTPM-39" value="前端页面交互实现" style="edgeStyle=orthogonalEdgeStyle;html=1;align=left;spacingLeft=2;endArrow=block;rounded=0;entryX=1;entryY=0;" edge="1" parent="JjA0xLamq4_Y50HzqTPM-28" target="JjA0xLamq4_Y50HzqTPM-38">
          <mxGeometry relative="1" as="geometry">
            <mxPoint x="65" y="190" as="sourcePoint" />
            <Array as="points">
              <mxPoint x="70" y="190" />
              <mxPoint x="70" y="220" />
            </Array>
          </mxGeometry>
        </mxCell>
        <mxCell id="JjA0xLamq4_Y50HzqTPM-41" value="dev环境接口连调" style="html=1;verticalAlign=bottom;startArrow=oval;startFill=1;endArrow=block;startSize=8;" edge="1" parent="JjA0xLamq4_Y50HzqTPM-28" target="JjA0xLamq4_Y50HzqTPM-26">
          <mxGeometry width="60" relative="1" as="geometry">
            <mxPoint x="50" y="290" as="sourcePoint" />
            <mxPoint x="110" y="290" as="targetPoint" />
          </mxGeometry>
        </mxCell>
        <mxCell id="JjA0xLamq4_Y50HzqTPM-63" value="" style="html=1;points=[];perimeter=orthogonalPerimeter;" vertex="1" parent="JjA0xLamq4_Y50HzqTPM-28">
          <mxGeometry x="45" y="410" width="10" height="40" as="geometry" />
        </mxCell>
        <mxCell id="JjA0xLamq4_Y50HzqTPM-64" value="前端部署&lt;br&gt;测试环境并自测" style="edgeStyle=orthogonalEdgeStyle;html=1;align=left;spacingLeft=2;endArrow=block;rounded=0;entryX=1;entryY=0;" edge="1" target="JjA0xLamq4_Y50HzqTPM-63" parent="JjA0xLamq4_Y50HzqTPM-28">
          <mxGeometry relative="1" as="geometry">
            <mxPoint x="50" y="390" as="sourcePoint" />
            <Array as="points">
              <mxPoint x="75" y="390" />
            </Array>
          </mxGeometry>
        </mxCell>
        <mxCell id="JjA0xLamq4_Y50HzqTPM-75" value="" style="html=1;points=[];perimeter=orthogonalPerimeter;" vertex="1" parent="JjA0xLamq4_Y50HzqTPM-28">
          <mxGeometry x="45" y="590" width="10" height="80" as="geometry" />
        </mxCell>
        <mxCell id="JjA0xLamq4_Y50HzqTPM-30" value="测试" style="shape=umlLifeline;perimeter=lifelinePerimeter;whiteSpace=wrap;html=1;container=1;collapsible=0;recursiveResize=0;outlineConnect=0;" vertex="1" parent="1">
          <mxGeometry x="560" y="630" width="100" height="720" as="geometry" />
        </mxCell>
        <mxCell id="JjA0xLamq4_Y50HzqTPM-31" value="" style="html=1;points=[];perimeter=orthogonalPerimeter;" vertex="1" parent="JjA0xLamq4_Y50HzqTPM-30">
          <mxGeometry x="45" y="80" width="10" height="90" as="geometry" />
        </mxCell>
        <mxCell id="JjA0xLamq4_Y50HzqTPM-65" value="产研测P0会议" style="html=1;verticalAlign=bottom;startArrow=oval;startFill=1;endArrow=block;startSize=8;" edge="1" parent="JjA0xLamq4_Y50HzqTPM-30" target="JjA0xLamq4_Y50HzqTPM-26">
          <mxGeometry x="-0.4425" y="-10" width="60" relative="1" as="geometry">
            <mxPoint x="50" y="470" as="sourcePoint" />
            <mxPoint x="110" y="470" as="targetPoint" />
            <mxPoint as="offset" />
          </mxGeometry>
        </mxCell>
        <mxCell id="JjA0xLamq4_Y50HzqTPM-70" value="" style="html=1;points=[];perimeter=orthogonalPerimeter;" vertex="1" parent="JjA0xLamq4_Y50HzqTPM-30">
          <mxGeometry x="48" y="580" width="10" height="90" as="geometry" />
        </mxCell>
        <mxCell id="JjA0xLamq4_Y50HzqTPM-71" value="测试" style="edgeStyle=orthogonalEdgeStyle;html=1;align=left;spacingLeft=2;endArrow=block;rounded=0;entryX=1;entryY=0;" edge="1" target="JjA0xLamq4_Y50HzqTPM-70" parent="JjA0xLamq4_Y50HzqTPM-30">
          <mxGeometry relative="1" as="geometry">
            <mxPoint x="53" y="560" as="sourcePoint" />
            <Array as="points">
              <mxPoint x="78" y="560" />
            </Array>
          </mxGeometry>
        </mxCell>
        <mxCell id="JjA0xLamq4_Y50HzqTPM-72" value="bug通知" style="html=1;verticalAlign=bottom;startArrow=oval;startFill=1;endArrow=block;startSize=8;" edge="1" parent="JjA0xLamq4_Y50HzqTPM-30">
          <mxGeometry x="-0.381" y="-10" width="60" relative="1" as="geometry">
            <mxPoint x="50" y="600" as="sourcePoint" />
            <mxPoint x="-370" y="600" as="targetPoint" />
            <mxPoint as="offset" />
          </mxGeometry>
        </mxCell>
        <mxCell id="JjA0xLamq4_Y50HzqTPM-33" value="接口文档确认" style="html=1;verticalAlign=bottom;endArrow=open;dashed=1;endSize=8;" edge="1" parent="1" target="JjA0xLamq4_Y50HzqTPM-26">
          <mxGeometry relative="1" as="geometry">
            <mxPoint x="390" y="780" as="sourcePoint" />
            <mxPoint x="310" y="780" as="targetPoint" />
          </mxGeometry>
        </mxCell>
        <mxCell id="JjA0xLamq4_Y50HzqTPM-40" value="" style="html=1;points=[];perimeter=orthogonalPerimeter;" vertex="1" parent="1">
          <mxGeometry x="395" y="920" width="10" height="80" as="geometry" />
        </mxCell>
        <mxCell id="JjA0xLamq4_Y50HzqTPM-44" value="测试用例编写" style="edgeStyle=orthogonalEdgeStyle;html=1;align=left;spacingLeft=2;endArrow=block;rounded=0;entryX=1;entryY=0;" edge="1" parent="1">
          <mxGeometry relative="1" as="geometry">
            <mxPoint x="625" y="700" as="sourcePoint" />
            <Array as="points">
              <mxPoint x="630" y="700" />
              <mxPoint x="630" y="730" />
            </Array>
            <mxPoint x="615" y="730" as="targetPoint" />
          </mxGeometry>
        </mxCell>
        <mxCell id="JjA0xLamq4_Y50HzqTPM-45" value="" style="html=1;points=[];perimeter=orthogonalPerimeter;" vertex="1" parent="1">
          <mxGeometry x="607.5" y="890" width="10" height="50" as="geometry" />
        </mxCell>
        <mxCell id="JjA0xLamq4_Y50HzqTPM-50" value="产研测用例评审会议" style="html=1;verticalAlign=bottom;startArrow=oval;startFill=1;endArrow=block;startSize=8;" edge="1" parent="1">
          <mxGeometry width="60" relative="1" as="geometry">
            <mxPoint x="610" y="890" as="sourcePoint" />
            <mxPoint x="500" y="890" as="targetPoint" />
          </mxGeometry>
        </mxCell>
        <mxCell id="JjA0xLamq4_Y50HzqTPM-56" value="P0未通过调整" style="html=1;verticalAlign=bottom;endArrow=open;dashed=1;endSize=8;" edge="1" parent="1">
          <mxGeometry relative="1" as="geometry">
            <mxPoint x="405" y="1140" as="sourcePoint" />
            <mxPoint x="495" y="1140" as="targetPoint" />
            <mxPoint as="offset" />
          </mxGeometry>
        </mxCell>
        <mxCell id="JjA0xLamq4_Y50HzqTPM-58" value="P0未通过调整" style="html=1;verticalAlign=bottom;endArrow=open;dashed=1;endSize=8;exitX=1;exitY=0.8;exitDx=0;exitDy=0;exitPerimeter=0;" edge="1" parent="1" source="JjA0xLamq4_Y50HzqTPM-54">
          <mxGeometry x="-0.1429" relative="1" as="geometry">
            <mxPoint x="185" y="1120" as="sourcePoint" />
            <mxPoint x="290" y="1142" as="targetPoint" />
            <Array as="points" />
            <mxPoint as="offset" />
          </mxGeometry>
        </mxCell>
        <mxCell id="JjA0xLamq4_Y50HzqTPM-54" value="" style="html=1;points=[];perimeter=orthogonalPerimeter;" vertex="1" parent="1">
          <mxGeometry x="175" y="1100" width="10" height="50" as="geometry" />
        </mxCell>
        <mxCell id="JjA0xLamq4_Y50HzqTPM-53" value="" style="html=1;points=[];perimeter=orthogonalPerimeter;" vertex="1" parent="1">
          <mxGeometry x="395" y="1100" width="10" height="50" as="geometry" />
        </mxCell>
        <mxCell id="JjA0xLamq4_Y50HzqTPM-47" value="" style="html=1;points=[];perimeter=orthogonalPerimeter;" vertex="1" parent="1">
          <mxGeometry x="605" y="1100" width="10" height="50" as="geometry" />
        </mxCell>
        <mxCell id="JjA0xLamq4_Y50HzqTPM-77" value="bug修复" style="html=1;verticalAlign=bottom;endArrow=open;dashed=1;endSize=8;" edge="1" parent="1">
          <mxGeometry relative="1" as="geometry">
            <mxPoint x="405" y="1290" as="sourcePoint" />
            <mxPoint x="545" y="1290" as="targetPoint" />
          </mxGeometry>
        </mxCell>
      </root>
    </mxGraphModel>
  </diagram>
</mxfile>
